<svg width="22" height="25" viewBox="0 0 22 25" fill="none" xmlns="http://www.w3.org/2000/svg">
<path d="M20.768 14.087H19.932V13.3913V11.3913C19.932 11.1739 19.756 11 19.536 11H18.348V8.6087C18.348 7.26087 17.556 6 16.324 5.43478V0.391304C16.324 0.173913 16.148 0 15.928 0H13.552C13.332 0 13.156 0.173913 13.156 0.391304V5.43478C11.924 6.04348 11.132 7.26087 11.132 8.6087V9.86957L10.12 8.47826V6.65217C10.12 6.43478 9.944 6.26087 9.724 6.26087H2.86C2.64 6.26087 2.464 6.43478 2.464 6.65217V8.47826L0.088 11.7391C0.088 11.7826 0.044 11.7826 0.044 11.7826V11.8261C0 11.913 0 11.9565 0 12V17.1739V21.087V24.6087C0 24.8261 0.176 25 0.396 25H7.304H12.232C12.452 25 12.628 24.8261 12.628 24.6087V23.0435H14.564V23.6957C14.564 24.3913 15.136 24.913 15.796 24.913H20.768C21.428 24.913 22 24.3478 22 23.6957V21.7391V18.8261V16.7826V15.3043C22 14.6522 21.428 14.087 20.768 14.087ZM19.14 11.7391V13H17.38V11.7391H19.14ZM13.948 0.782609H15.576V4.08696H13.948V0.782609ZM11.924 8.6087C11.924 7.47826 12.628 6.43478 13.684 6C13.816 5.95652 13.904 5.82609 13.904 5.65217V4.78261H15.532V5.65217C15.532 5.82609 15.62 5.95652 15.752 6C16.808 6.43478 17.512 7.43478 17.512 8.6087V9H11.924V8.6087ZM11.924 9.73913H17.556V11H16.984C16.764 11 16.588 11.1739 16.588 11.3913V13.3913V14.087H15.752C15.048 14.087 14.52 14.6522 14.52 15.3043V16.7826V18.087H12.584V12C12.584 11.913 12.54 11.8261 12.496 11.7826L11.88 10.913V9.73913H11.924ZM15.312 17.1739H17.512C17.512 17.2174 17.512 17.2174 17.556 17.2609C17.556 17.3043 17.556 17.3043 17.556 17.3478C17.556 17.4348 17.6 17.5652 17.6 17.6522C17.6 18.6522 16.764 19.4783 15.752 19.4783C15.62 19.4783 15.532 19.4783 15.4 19.4348C15.4 19.4348 15.4 19.4348 15.356 19.4348V17.1739H15.312ZM3.212 7.04348H9.372V8.21739H3.212V7.04348ZM6.908 24.1739H0.748V21.3478L6.908 19.6522V24.1739ZM6.908 18.913L0.748 20.6087V17.4783L6.908 15.7826V18.913ZM6.908 14.9565L0.748 16.6522V12.3478H6.908V14.9565ZM7.128 11.6087H1.144L3.036 9H9.02L7.128 11.6087ZM11.88 24.1739H7.7V19.1739V15.2609V12.1304L9.768 9.26087L11.836 12.1304V24.1739H11.88ZM12.628 22.3043V18.8696H14.564V19.7391V21.8261V22.3478H12.628V22.3043ZM21.252 23.7391C21.252 24 21.032 24.2174 20.768 24.2174H15.796C15.532 24.2174 15.312 24 15.312 23.7391V22.1739H18.788H21.252V23.7391ZM21.252 21.3913H19.052C19.052 21.3478 19.052 21.3478 19.008 21.3043C19.008 21.2609 19.008 21.2609 19.008 21.2174C18.964 21.1304 18.964 21 18.964 20.913C18.964 19.913 19.8 19.0435 20.812 19.0435C20.944 19.0435 21.032 19.0435 21.164 19.087C21.164 19.087 21.164 19.087 21.208 19.087V21.3913H21.252ZM21.252 18.3478C21.12 18.3478 20.988 18.3043 20.856 18.3043C19.404 18.3043 18.216 19.4783 18.216 20.913C18.216 21 18.216 21.087 18.216 21.1304C18.216 21.1739 18.216 21.2174 18.216 21.2174C18.216 21.2609 18.216 21.3043 18.26 21.3478H15.312V20.1304C15.444 20.1739 15.576 20.1739 15.708 20.1739C17.16 20.1739 18.348 19 18.348 17.5652C18.348 17.4348 18.348 17.2609 18.304 17.1304C18.304 17.1304 18.304 17.1304 18.304 17.087H21.252V18.3478ZM21.252 16.3913H17.776H15.312V15.3043C15.312 15.0435 15.532 14.8261 15.796 14.8261H16.984C17.204 14.8261 17.38 14.6522 17.38 14.4348V13.7391H19.14V14.4348C19.14 14.6522 19.316 14.8261 19.536 14.8261H20.768C21.032 14.8261 21.252 15.0435 21.252 15.3043V16.3913Z" fill="#1C3E7A"/>
</svg>
