<svg width="23" height="23" viewBox="0 0 23 23" fill="none" xmlns="http://www.w3.org/2000/svg">
<path d="M11.5 6.46875V7.90625" stroke="#1C3E7A" stroke-width="2" stroke-linecap="round" stroke-linejoin="round"/>
<path d="M11.5 15.0938V16.5312" stroke="#1C3E7A" stroke-width="2" stroke-linecap="round" stroke-linejoin="round"/>
<path d="M11.5 20.125C16.2635 20.125 20.125 16.2635 20.125 11.5C20.125 6.73654 16.2635 2.875 11.5 2.875C6.73654 2.875 2.875 6.73654 2.875 11.5C2.875 16.2635 6.73654 20.125 11.5 20.125Z" stroke="#1C3E7A" stroke-width="2" stroke-linecap="round" stroke-linejoin="round"/>
<path d="M9.34375 15.0938H12.5781C13.0547 15.0938 13.5117 14.9044 13.8487 14.5675C14.1857 14.2305 14.375 13.7734 14.375 13.2969C14.375 12.8203 14.1857 12.3633 13.8487 12.0263C13.5117 11.6893 13.0547 11.5 12.5781 11.5H10.4219C9.94531 11.5 9.48827 11.3107 9.15129 10.9737C8.81431 10.6367 8.625 10.1797 8.625 9.70312C8.625 9.22656 8.81431 8.76952 9.15129 8.43254C9.48827 8.09556 9.94531 7.90625 10.4219 7.90625H13.6562" stroke="#1C3E7A" stroke-width="2" stroke-linecap="round" stroke-linejoin="round"/>
</svg>
