<svg width="25" height="25" viewBox="0 0 25 25" fill="none" xmlns="http://www.w3.org/2000/svg">
<path d="M8.59375 15.625C11.3983 15.625 13.6719 13.3514 13.6719 10.5469C13.6719 7.7423 11.3983 5.46875 8.59375 5.46875C5.78918 5.46875 3.51562 7.7423 3.51562 10.5469C3.51562 13.3514 5.78918 15.625 8.59375 15.625Z" stroke="#1C3E7A" stroke-width="2" stroke-miterlimit="10"/>
<path d="M15.177 5.65791C15.8755 5.46112 16.608 5.41629 17.3252 5.52644C18.0425 5.63659 18.7278 5.89916 19.335 6.29647C19.9422 6.69378 20.4572 7.21659 20.8454 7.82971C21.2335 8.44282 21.4858 9.132 21.5852 9.85081C21.6845 10.5696 21.6287 11.3014 21.4215 11.9968C21.2142 12.6922 20.8603 13.3352 20.3837 13.8823C19.907 14.4295 19.3187 14.8681 18.6582 15.1687C17.9977 15.4693 17.2805 15.6249 16.5549 15.625" stroke="#1C3E7A" stroke-width="2" stroke-linecap="round" stroke-linejoin="round"/>
<path d="M1.5625 19.277C2.3556 18.1489 3.40849 17.2282 4.63228 16.5925C5.85606 15.9569 7.21482 15.6251 8.59383 15.625C9.97284 15.6249 11.3316 15.9567 12.5555 16.5922C13.7793 17.2278 14.8323 18.1484 15.6254 19.2765" stroke="#1C3E7A" stroke-width="2" stroke-linecap="round" stroke-linejoin="round"/>
<path d="M16.5549 15.625C17.9341 15.624 19.2931 15.9553 20.5171 16.591C21.741 17.2266 22.7938 18.1477 23.5862 19.2765" stroke="#1C3E7A" stroke-width="2" stroke-linecap="round" stroke-linejoin="round"/>
</svg>
